<svg width="63" height="62" viewBox="0 0 63 62" fill="none" xmlns="http://www.w3.org/2000/svg">
<path d="M15.4026 15.3958C18.2382 12.5614 18.2382 7.96594 15.4026 5.13155C12.5671 2.29715 7.96976 2.29715 5.13421 5.13155C2.29867 7.96594 2.29866 12.5614 5.13421 15.3958C7.96976 18.2302 12.5671 18.2302 15.4026 15.3958Z" fill="#67788B"/>
<path fill-rule="evenodd" clip-rule="evenodd" d="M16.6211 19.9781L17.3324 19.2671L17.792 18.7639V47.4674H32.4341H32.4396C37.7581 47.4674 41.5335 45.6954 43.9629 42.9661C46.4033 40.2314 47.5195 36.5177 47.5195 32.6617C47.5195 28.5104 46.2336 24.5396 43.4048 21.7666C40.9754 19.382 37.3969 17.8615 32.4998 17.8505V16.6855C37.7362 16.702 41.5882 18.3483 44.2255 20.9353C47.2951 23.9489 48.6904 28.2151 48.6904 32.6563V32.6617C48.6904 36.7966 47.4812 40.7838 44.8384 43.7428C42.1901 46.7127 38.1301 48.6379 32.4396 48.6379H32.4341L16.6211 48.6324V19.9781Z" fill="#67788B"/>
<path fill-rule="evenodd" clip-rule="evenodd" d="M14.416 22.1939L15.0234 21.5813L15.5869 21.018V49.6668H32.549H32.5545C38.4147 49.6668 42.7208 47.747 45.5497 44.6678C48.384 41.583 49.7628 37.3278 49.7628 32.6569C49.7628 27.6961 48.2253 23.2659 45.0955 20.1757C42.2503 17.3699 38.0754 15.6525 32.5162 15.6415H32.5053V14.4766H32.5162C38.4037 14.493 42.8576 16.3362 45.9108 19.3498C49.2759 22.6698 50.9283 27.3953 50.9283 32.6514V32.6569C50.9283 37.6122 49.4455 42.1518 46.4087 45.4608C43.361 48.7753 38.7703 50.8373 32.5545 50.8373H32.549L14.4215 50.8318V22.1939H14.416Z" fill="#67788B"/>
<path fill-rule="evenodd" clip-rule="evenodd" d="M12.2051 24.4101L12.8343 23.7756L13.3705 23.2342V51.872H32.6526H32.6581C39.0599 51.872 43.8914 49.8101 47.1196 46.3807C50.3534 42.9514 51.9894 38.1438 51.9949 32.658C51.9949 26.9041 50.2166 21.9981 46.7749 18.5906C43.5193 15.3691 38.759 13.4658 32.5924 13.4384H32.4994V12.2734H32.5924C39.0873 12.3008 44.1266 14.3245 47.5957 17.7647C51.2671 21.3964 53.1603 26.5924 53.1603 32.6525V32.658C53.1603 38.4391 51.4149 43.5257 47.9732 47.1793C44.5261 50.8383 39.4046 53.037 32.6636 53.037H32.6581L12.2105 53.0316V24.4101H12.2051Z" fill="#67788B"/>
<path fill-rule="evenodd" clip-rule="evenodd" d="M10.002 26.6184L11.1729 25.4425V54.064H32.764H32.7695C39.7075 54.064 45.0752 51.8543 48.6974 48.0804C52.3251 44.3065 54.2292 38.9465 54.2292 32.6512C54.2292 26.1098 52.2157 20.7224 48.4621 16.9923C44.7961 13.3496 39.4449 11.2658 32.671 11.2275H32.5014V10.0625H32.6764C39.7732 10.1063 45.4035 12.305 49.2829 16.1664C53.2608 20.1208 55.3947 25.7926 55.3947 32.6403V32.6457C55.3947 39.2473 53.3811 44.8863 49.54 48.8844C45.699 52.8826 40.0413 55.229 32.7695 55.229H32.764L10.002 55.2235V26.6184Z" fill="#67788B"/>
<path fill-rule="evenodd" clip-rule="evenodd" d="M7.78906 28.8354L8.95999 27.6595V56.27H32.8711H32.8766C40.3508 56.27 46.2493 53.9181 50.2709 49.7997C54.298 45.6757 56.4648 39.7687 56.4648 32.6585C56.4648 25.3349 54.2214 19.4608 50.156 15.408C46.0742 11.3387 40.132 9.0853 32.7562 9.03608H32.5045V7.87109H32.7616C40.4548 7.92579 46.676 10.2995 50.9768 14.5821C55.2665 18.8592 57.6357 25.0123 57.6357 32.6476V32.653C57.6357 40.075 55.3541 46.2664 51.1135 50.6091C46.873 54.9573 40.6846 57.435 32.882 57.435H32.8766L7.79453 57.4295V28.8354H7.78906Z" fill="#67788B"/>
<path fill-rule="evenodd" clip-rule="evenodd" d="M5.58594 31.0496L6.14952 30.4862L6.75687 29.8737V58.4733H32.9825H32.9879C40.9984 58.4733 47.4276 55.9792 51.8487 51.5107C56.2698 47.0422 58.6992 40.5828 58.7047 32.6576C58.7047 24.5574 56.237 18.191 51.8487 13.8155C47.3455 9.31959 40.8124 6.89663 32.8402 6.831H32.5119V5.66602H32.8511C41.1352 5.73712 47.9529 8.27493 52.6749 12.9896C57.282 17.5894 59.8756 24.2347 59.8756 32.6521V32.6576C59.8756 40.9055 57.3258 47.6438 52.6913 52.3311C48.0514 57.0239 41.3377 59.6383 32.9989 59.6383H32.9934L5.59688 59.6328V31.0496H5.58594Z" fill="#67788B"/>
<path fill-rule="evenodd" clip-rule="evenodd" d="M3.38086 33.2974L3.96633 32.6794L4.55179 32.0941V60.6773H33.0919H33.0974C41.6441 60.6773 48.604 58.041 53.4245 53.228C58.245 48.4149 60.9371 41.4031 60.9371 32.6629C60.9371 23.7915 58.2396 16.9274 53.534 12.2237C48.6149 7.30125 41.4799 4.71421 32.9168 4.63764H32.5064V3.47266H32.9277C41.8027 3.5547 49.2223 6.26206 54.3656 11.4033C59.2901 16.3258 62.1135 23.4689 62.1135 32.6575V32.6629C62.1135 41.7258 59.2956 49.022 54.2617 54.0538C49.2223 59.0912 41.9778 61.8478 33.1138 61.8478H33.1083L3.39727 61.8423V33.2974H3.38086Z" fill="#67788B"/>
</svg>
