<svg width="54" height="55" viewBox="0 0 54 55" fill="none" xmlns="http://www.w3.org/2000/svg">
<path d="M3.5752 10.7678C3.5752 32.7825 21.4216 50.6289 43.4363 50.6289C44.4295 50.6289 45.4142 50.5926 46.3893 50.5212C47.5083 50.4391 48.0676 50.3982 48.5771 50.1051C48.9988 49.8623 49.3987 49.4318 49.6101 48.9933C49.8655 48.4641 49.8655 47.8466 49.8655 46.6119V39.3667C49.8655 38.3283 49.8655 37.8091 49.6945 37.3642C49.5438 36.971 49.2984 36.621 48.9806 36.3448C48.6208 36.032 48.1327 35.8546 47.157 35.4997L38.9101 32.5009C37.7747 32.0881 37.2069 31.8816 36.6684 31.9166C36.1934 31.9474 35.7364 32.1097 35.3481 32.3849C34.9078 32.6968 34.5971 33.2148 33.9756 34.2509L31.8637 37.7705C25.049 34.6842 19.5245 29.1525 16.4336 22.3404L19.9533 20.2286C20.9892 19.607 21.5072 19.2962 21.8192 18.8559C22.0944 18.4677 22.2567 18.0106 22.2875 17.5357C22.3225 16.9971 22.116 16.4295 21.7032 15.2941L18.7044 7.04714C18.3495 6.07132 18.1721 5.58339 17.8594 5.22354C17.5832 4.90565 17.2331 4.66047 16.84 4.50951C16.3949 4.33862 15.8758 4.33862 14.8374 4.33862H7.59219C6.35745 4.33862 5.74006 4.33862 5.21073 4.59386C4.77231 4.80528 4.34192 5.20531 4.09905 5.62711C3.80582 6.13641 3.76486 6.69588 3.68292 7.81484C3.61153 8.78984 3.5752 9.77459 3.5752 10.7678Z" stroke="#FF922E" stroke-width="7" stroke-linecap="round" stroke-linejoin="round"/>
</svg>
