<svg width="78" height="62" viewBox="0 0 78 62" fill="none" xmlns="http://www.w3.org/2000/svg">
<path d="M70.9917 54.8938C70.9071 55.9319 70.0399 56.7313 68.9983 56.7313H9.00654C7.965 56.7313 7.0978 55.9319 7.01316 54.8938L4.80719 27.839C4.71221 26.6743 5.63191 25.6765 6.80057 25.6765H71.2043C72.373 25.6765 73.2927 26.6743 73.1977 27.839L70.9917 54.8938Z" stroke="#FF922D" stroke-width="9"/>
<path d="M12.7715 22.6025V7.45166C12.7715 6.34709 13.6669 5.45166 14.7715 5.45166H25.0586C25.589 5.45166 26.0977 5.66237 26.4728 6.03745L30.5475 10.1121C30.9225 10.4872 31.4312 10.6979 31.9617 10.6979H63.2336C64.3382 10.6979 65.2336 11.5933 65.2336 12.6979V22.6025" stroke="#FF922D" stroke-width="9"/>
</svg>
